<svg width="1400" height="820" viewBox="0 0 1400 820" fill="none" xmlns="http://www.w3.org/2000/svg">
  <defs>
    <linearGradient id="bg" x1="0" y1="0" x2="1400" y2="820" gradientUnits="userSpaceOnUse">
      <stop stop-color="#0B0D14"/>
      <stop offset="1" stop-color="#131827"/>
    </linearGradient>
    <linearGradient id="panel" x1="0" y1="0" x2="1" y2="1">
      <stop stop-color="#151B2D"/>
      <stop offset="1" stop-color="#0E1322"/>
    </linearGradient>
    <filter id="shadow" x="-20%" y="-20%" width="140%" height="140%">
      <feDropShadow dx="0" dy="18" stdDeviation="18" flood-color="#000000" flood-opacity="0.35"/>
    </filter>
    <style>
      .title { font: 700 54px 'Segoe UI', Arial, sans-serif; fill: #F5F7FB; }
      .subtitle { font: 500 24px 'Segoe UI', Arial, sans-serif; fill: #A3AECF; }
      .label { font: 700 22px 'Segoe UI', Arial, sans-serif; fill: #FA7C92; }
      .small { font: 600 18px 'Segoe UI', Arial, sans-serif; fill: #B8C1DD; }
      .code { font: 500 16px Consolas, 'Courier New', monospace; fill: #D9E0FF; }
      .muted { font: 500 17px 'Segoe UI', Arial, sans-serif; fill: #8FA0C7; }
      .green { fill: #73D483; }
      .blue { fill: #80B8FF; }
      .pink { fill: #FF8AA5; }
    </style>
  </defs>

  <rect width="1400" height="820" rx="30" fill="url(#bg)"/>

  <rect x="118" y="145" width="1010" height="540" rx="18" stroke="#3D7A55" stroke-width="3"/>
  <text x="140" y="118" class="title">CEX Orderbook</text>
  <text x="140" y="665" class="subtitle">HTTP read-heavy depth requests plus a write path for order mutations</text>

  <text x="185" y="190" class="green" style="font: 700 30px 'Segoe UI', Arial, sans-serif;">HTTP</text>
  <text x="55" y="285" class="green" style="font: 700 24px 'Segoe UI', Arial, sans-serif;">depth</text>
  <text x="70" y="430" class="green" style="font: 700 24px 'Segoe UI', Arial, sans-serif;">depth</text>
  <text x="84" y="575" class="green" style="font: 700 24px 'Segoe UI', Arial, sans-serif;">depth</text>

  <line x1="108" y1="280" x2="180" y2="280" stroke="#3D7A55" stroke-width="2"/>
  <line x1="108" y1="425" x2="180" y2="425" stroke="#3D7A55" stroke-width="2"/>
  <line x1="108" y1="570" x2="180" y2="570" stroke="#3D7A55" stroke-width="2"/>

  <g filter="url(#shadow)">
    <rect x="200" y="225" width="285" height="150" rx="18" fill="url(#panel)" stroke="#34415E"/>
    <text x="222" y="212" class="label">thread 1</text>
    <text x="225" y="255" class="code">#[get("/depth")]</text>
    <text x="225" y="284" class="code">async fn get_depth() -&gt; impl Responder {</text>
    <text x="245" y="313" class="code">HttpResponse::Ok().json(Depth {</text>
    <text x="265" y="342" class="code">bids: vec![], asks: vec![]</text>
    <text x="245" y="371" class="code">})</text>
  </g>

  <g filter="url(#shadow)">
    <rect x="530" y="225" width="285" height="150" rx="18" fill="url(#panel)" stroke="#34415E"/>
    <text x="552" y="212" class="label">thread 2</text>
    <text x="555" y="255" class="code">#[get("/depth")]</text>
    <text x="555" y="284" class="code">async fn get_depth() -&gt; impl Responder {</text>
    <text x="575" y="313" class="code">HttpResponse::Ok().json(Depth {</text>
    <text x="595" y="342" class="code">bids: vec![], asks: vec![]</text>
    <text x="575" y="371" class="code">})</text>
  </g>

  <g filter="url(#shadow)">
    <rect x="200" y="435" width="285" height="150" rx="18" fill="url(#panel)" stroke="#34415E"/>
    <text x="222" y="422" class="label">thread 3</text>
    <text x="225" y="465" class="code">#[get("/depth")]</text>
    <text x="225" y="494" class="code">async fn get_depth() -&gt; impl Responder {</text>
    <text x="245" y="523" class="code">HttpResponse::Ok().json(Depth {</text>
    <text x="265" y="552" class="code">bids: vec![], asks: vec![]</text>
    <text x="245" y="581" class="code">})</text>
  </g>

  <g filter="url(#shadow)">
    <rect x="665" y="430" width="365" height="175" rx="18" fill="url(#panel)" stroke="#34415E"/>
    <text x="687" y="417" class="label">thread 4</text>
    <text x="690" y="463" class="code">async fn create_order(body: Json&lt;CreateOrderInput&gt;)</text>
    <text x="690" y="492" class="code">let price = body.price;</text>
    <text x="690" y="521" class="code">let quantity = body.quantity;</text>
    <text x="690" y="550" class="code">/* orderbook write path */</text>
    <text x="690" y="579" class="code">HttpResponse::Ok().json(...)</text>
  </g>

  <rect x="835" y="90" width="260" height="70" rx="14" fill="#181325" stroke="#A95D75" stroke-width="2"/>
  <text x="865" y="133" class="pink" style="font: 700 28px 'Segoe UI', Arial, sans-serif;">order = HashMap</text>

  <text x="602" y="178" class="pink" style="font: 700 18px 'Segoe UI', Arial, sans-serif;">read</text>
  <text x="748" y="178" class="pink" style="font: 700 18px 'Segoe UI', Arial, sans-serif;">read</text>
  <text x="934" y="178" class="pink" style="font: 700 18px 'Segoe UI', Arial, sans-serif;">read</text>
  <text x="1148" y="240" class="blue" style="font: 700 18px 'Segoe UI', Arial, sans-serif;">write</text>

  <line x1="905" y1="160" x2="350" y2="225" stroke="#A95D75" stroke-width="2"/>
  <line x1="930" y1="160" x2="672" y2="225" stroke="#A95D75" stroke-width="2"/>
  <line x1="955" y1="160" x2="350" y2="435" stroke="#A95D75" stroke-width="2"/>
  <line x1="1088" y1="160" x2="1030" y2="430" stroke="#7BA7FF" stroke-width="2"/>

  <text x="1045" y="714" class="muted">Diagram recreated from the provided concept image for repo-local documentation use.</text>
</svg>
